<?xml version="1.0" standalone="no"?>
<!DOCTYPE svg PUBLIC "-//W3C//DTD SVG 20010904//EN"
 "http://www.w3.org/TR/2001/REC-SVG-20010904/DTD/svg10.dtd">
<svg version="1.0" xmlns="http://www.w3.org/2000/svg"
 width="700.000000pt" height="700.000000pt" viewBox="0 0 700.000000 700.000000"
 preserveAspectRatio="xMidYMid meet">
<metadata>
Created by potrace 1.14, written by Peter Selinger 2001-2017
</metadata>
<g transform="translate(0.000000,700.000000) scale(0.100000,-0.100000)"
fill="#000000" stroke="none">
<path d="M515 6986 c-132 -31 -233 -86 -329 -183 -69 -69 -116 -145 -153 -248
l-28 -80 -3 -2163 -2 -2163 436 583 c241 321 462 616 493 657 30 41 75 87 99
102 89 56 113 60 412 57 l273 -3 -661 -827 c-363 -455 -664 -832 -667 -838 -4
-6 26 5 67 26 220 111 455 153 697 125 279 -33 500 -128 676 -293 174 -162
276 -350 332 -608 25 -118 25 -410 -1 -528 -40 -187 -128 -385 -230 -518 l-54
-71 2262 -6 c1466 -5 2282 -4 2320 3 264 44 475 243 530 500 15 68 16 343 14
3020 l-3 2945 -23 65 c-90 249 -303 420 -552 444 -30 3 -1358 8 -2950 10
-2432 5 -2905 3 -2955 -8z"/>
<path d="M701 1599 c-304 -39 -564 -245 -655 -520 -37 -110 -49 -208 -43 -329
22 -377 216 -627 562 -722 113 -31 354 -31 467 0 173 47 278 104 383 207 179
175 259 447 214 724 -69 431 -461 701 -928 640z"/>
</g>
</svg>
