<svg xmlns="http://www.w3.org/2000/svg" viewBox="0 0 458.14 44.04"><defs><style>.logo-path{fill:#9e0000;}</style></defs><g id="Layer_2" data-name="Layer 2"><g id="Layer_1-2" data-name="Layer 1"><path class="logo-path" d="M50.5,19.11h2.1a5,5,0,0,0,1.85-.28,3.08,3.08,0,0,0,1.27-1L69.43,1.92A3.76,3.76,0,0,1,70.78.8,4.12,4.12,0,0,1,72.49.49H78L62,18.85a7.29,7.29,0,0,1-1.19,1.26,7.1,7.1,0,0,1-1.21.81,5.93,5.93,0,0,1,2.88,2.31L79.06,43.57H73.51a5.23,5.23,0,0,1-1-.09,2.86,2.86,0,0,1-.75-.26,2.54,2.54,0,0,1-.57-.4,2.61,2.61,0,0,1-.46-.57L56.5,25.45a4.93,4.93,0,0,0-.6-.66,2.46,2.46,0,0,0-.69-.44,3.69,3.69,0,0,0-.9-.24,8.43,8.43,0,0,0-1.2-.07H50.5V43.57H44.11V.49H50.5Z"/><path class="logo-path" d="M90.64,43.56H84.22V.48h6.42Z"/><path class="logo-path" d="M130.63,5.82H117V43.56h-6.36V5.82H96.85V.48h33.78Z"/><path class="logo-path" d="M165.12,34.32a1.23,1.23,0,0,1,.93.42l2.52,2.76a18,18,0,0,1-6.44,4.83A22.16,22.16,0,0,1,153,44a21.36,21.36,0,0,1-8.47-1.62A18.67,18.67,0,0,1,138,37.89a20.39,20.39,0,0,1-4.16-7A25.94,25.94,0,0,1,132.41,22,24.81,24.81,0,0,1,134,13.11a20.6,20.6,0,0,1,4.33-7A19.53,19.53,0,0,1,145,1.62,22.15,22.15,0,0,1,153.55,0a20.91,20.91,0,0,1,8.16,1.5,20.56,20.56,0,0,1,6.21,4l-2.1,3a1.79,1.79,0,0,1-.52.54,1.48,1.48,0,0,1-.83.21,2.33,2.33,0,0,1-1.33-.57,19.69,19.69,0,0,0-2-1.27,15.78,15.78,0,0,0-3.07-1.28,15.55,15.55,0,0,0-4.56-.57,15.17,15.17,0,0,0-5.88,1.12A13,13,0,0,0,143,9.88a14.7,14.7,0,0,0-3,5.19A21.12,21.12,0,0,0,139,22a20.43,20.43,0,0,0,1.11,7,15.31,15.31,0,0,0,3.06,5.19,13,13,0,0,0,4.59,3.24,14.56,14.56,0,0,0,5.7,1.11,22.36,22.36,0,0,0,3.34-.23,14.34,14.34,0,0,0,2.73-.68,11.9,11.9,0,0,0,2.35-1.15A16.5,16.5,0,0,0,164,34.79a2.44,2.44,0,0,1,.51-.35A1.47,1.47,0,0,1,165.12,34.32Z"/><path class="logo-path" d="M210.3.48V43.56h-6.39V24.15H181.44V43.56H175V.48h6.42v19h22.47V.48Z"/><path class="logo-path" d="M247.68,38.37l0,5.19H221V.48h26.7V5.67H227.37V19.32h16.32v5H227.37v14Z"/><path class="logo-path" d="M290.85.48V43.56h-3.24a2.53,2.53,0,0,1-1.24-.27,3.7,3.7,0,0,1-1-.87L261,11c0,.54.08,1.07.11,1.59s0,1,0,1.47V43.56h-5.61V.48h3.3a3.11,3.11,0,0,1,1.26.2,2.72,2.72,0,0,1,.93.88l24.39,31.5c-.06-.58-.11-1.14-.14-1.69s0-1.06,0-1.55V.48Z"/><path class="logo-path" d="M310.77,16.5c-.34.44-.67.87-1,1.27s-.65.82-.95,1.22a12.08,12.08,0,0,1,3.2-1.44,13.51,13.51,0,0,1,3.79-.51,14.11,14.11,0,0,1,4.86.84,11.92,11.92,0,0,1,4.06,2.46,11.65,11.65,0,0,1,2.78,4,14,14,0,0,1,1,5.52,14.28,14.28,0,0,1-1.08,5.56,13.46,13.46,0,0,1-3,4.5,14.34,14.34,0,0,1-4.7,3,17.34,17.34,0,0,1-12,.05,12.75,12.75,0,0,1-4.53-3,13.26,13.26,0,0,1-2.89-4.68,17.39,17.39,0,0,1-1-6.1,16.78,16.78,0,0,1,1.25-6.08,30.07,30.07,0,0,1,3.95-6.83L315.22,1.88a3.47,3.47,0,0,1,1.26-1,4.11,4.11,0,0,1,1.86-.41h5.22Zm2.76,22.65a10,10,0,0,0,3.75-.67,8.59,8.59,0,0,0,2.88-1.85A8.13,8.13,0,0,0,322,33.84a9.21,9.21,0,0,0,.66-3.51,10.09,10.09,0,0,0-.65-3.71,7.91,7.91,0,0,0-1.8-2.77,7.72,7.72,0,0,0-2.78-1.74,10.3,10.3,0,0,0-3.6-.6,9.56,9.56,0,0,0-3.72.7,8.73,8.73,0,0,0-2.82,1.89,8.28,8.28,0,0,0-1.8,2.77,9,9,0,0,0-.63,3.33,11.06,11.06,0,0,0,.57,3.63,7.51,7.51,0,0,0,4.39,4.65A9.56,9.56,0,0,0,313.53,39.15Z"/><path class="logo-path" d="M353.46,18H351a1.14,1.14,0,0,1-1.08-.58l-4-5.82a1.37,1.37,0,0,0-.44-.43,1.52,1.52,0,0,0-.72-.13h-1.56v7h-2.81V.74h5.09a10.89,10.89,0,0,1,2.93.35,5.53,5.53,0,0,1,2,1,3.89,3.89,0,0,1,1.17,1.54,5.17,5.17,0,0,1,.38,2,5.1,5.1,0,0,1-.27,1.68,4.8,4.8,0,0,1-.78,1.42,5.12,5.12,0,0,1-1.25,1.1,6.17,6.17,0,0,1-1.69.73,2.87,2.87,0,0,1,.89.88Zm-8.13-9A5.64,5.64,0,0,0,347,8.79a3.44,3.44,0,0,0,1.2-.65,2.64,2.64,0,0,0,.72-1,3.37,3.37,0,0,0,.24-1.29,2.59,2.59,0,0,0-.94-2.16A4.49,4.49,0,0,0,345.4,3h-2.28V9h2.21Z"/><path class="logo-path" d="M366.34,15.75V18H355.55V.74h10.78V3h-8V8.22h6.36v2.2h-6.36v5.34h8Z"/><path class="logo-path" d="M381,14.17a.55.55,0,0,1,.4.18l1.12,1.21a7.07,7.07,0,0,1-2.59,2,8.9,8.9,0,0,1-3.67.69,8.77,8.77,0,0,1-3.43-.65,7.57,7.57,0,0,1-2.61-1.82A8.12,8.12,0,0,1,368.56,13,10.43,10.43,0,0,1,368,9.39a10,10,0,0,1,.62-3.57A8.18,8.18,0,0,1,370.34,3,7.76,7.76,0,0,1,373,1.2a9,9,0,0,1,3.45-.65,8.35,8.35,0,0,1,3.31.61,8,8,0,0,1,2.49,1.61l-.92,1.31a1,1,0,0,1-.23.23.57.57,0,0,1-.36.1,1,1,0,0,1-.55-.22,8.48,8.48,0,0,0-.78-.49,6.2,6.2,0,0,0-1.19-.49A6,6,0,0,0,376.47,3a5.81,5.81,0,0,0-2.27.43,5,5,0,0,0-1.78,1.26,5.79,5.79,0,0,0-1.16,2,8.06,8.06,0,0,0-.41,2.7,7.92,7.92,0,0,0,.43,2.72,5.84,5.84,0,0,0,1.19,2,4.92,4.92,0,0,0,1.78,1.25,5.53,5.53,0,0,0,2.2.43,9.91,9.91,0,0,0,1.29-.08,5.38,5.38,0,0,0,1.05-.25,5.09,5.09,0,0,0,.91-.44,6,6,0,0,0,.85-.65A.57.57,0,0,1,381,14.17Z"/><path class="logo-path" d="M387.77,18H385V.74h2.82Z"/><path class="logo-path" d="M397.25.74a9.43,9.43,0,0,1,2.93.4,5.51,5.51,0,0,1,2.05,1.11A4.53,4.53,0,0,1,403.44,4a5.87,5.87,0,0,1,.4,2.21,5.91,5.91,0,0,1-.42,2.26,4.77,4.77,0,0,1-1.25,1.76,5.78,5.78,0,0,1-2.06,1.15,9.13,9.13,0,0,1-2.86.41h-2.57V18h-2.81V.73h5.38Zm0,8.81a5.21,5.21,0,0,0,1.65-.24,3.29,3.29,0,0,0,1.19-.68,2.75,2.75,0,0,0,.71-1.06A3.86,3.86,0,0,0,401,6.18a3.88,3.88,0,0,0-.23-1.36,2.7,2.7,0,0,0-.7-1,3.18,3.18,0,0,0-1.18-.64,5.59,5.59,0,0,0-1.67-.22h-2.57V9.55Z"/><path class="logo-path" d="M417.32,15.75V18H406.53V.74h10.78V3h-8V8.22h6.36v2.2h-6.36v5.34h8Z"/><path class="logo-path" d="M358.7,25.74V43h-2.47V31.18c0-.19,0-.4,0-.63s0-.46.05-.69l-5.56,10.26a1.07,1.07,0,0,1-1,.64h-.4a1,1,0,0,1-1-.64L342.7,29.84c0,.23,0,.46.05.7s0,.45,0,.65V43H340.3V25.75h2.1a1.79,1.79,0,0,1,.58.07.7.7,0,0,1,.37.4l5.54,10c.12.23.23.47.34.71a6.13,6.13,0,0,1,.29.75c.1-.26.2-.51.31-.76s.22-.49.34-.73l5.46-10a.73.73,0,0,1,.37-.4,2.07,2.07,0,0,1,.58-.07Z"/><path class="logo-path" d="M377.26,43h-2.17a.88.88,0,0,1-.6-.19,1.23,1.23,0,0,1-.35-.46l-1.44-3.82h-7.44l-1.44,3.82a1.07,1.07,0,0,1-.34.44.87.87,0,0,1-.6.2h-2.17l6.85-17.28h2.84Zm-5.32-6.48-2.38-6.31a18.22,18.22,0,0,1-.59-1.86c-.09.38-.18.72-.29,1s-.2.59-.29.83L366,36.54Z"/><path class="logo-path" d="M393.58,25.74V43h-1.43a1.28,1.28,0,0,1-.55-.11,1.26,1.26,0,0,1-.43-.38l-9.49-12.19c0,.23,0,.46.05.69s0,.44,0,.63V43h-2.47V25.74h1.46l.31,0a.62.62,0,0,1,.23.07.66.66,0,0,1,.2.14,1.8,1.8,0,0,1,.2.24l9.5,12.2c0-.25,0-.49-.05-.73s0-.46,0-.67V25.74Z"/><path class="logo-path" d="M412.16,43H410a.88.88,0,0,1-.6-.19,1.23,1.23,0,0,1-.35-.46l-1.44-3.82h-7.44l-1.44,3.82a1.07,1.07,0,0,1-.34.44.87.87,0,0,1-.6.2h-2.17l6.85-17.28h2.84Zm-5.32-6.48-2.38-6.31a18.22,18.22,0,0,1-.59-1.86c-.09.38-.18.72-.29,1s-.2.59-.29.83l-2.38,6.3Z"/><path class="logo-path" d="M427.84,34.51v6.84a10,10,0,0,1-6,1.86,10.63,10.63,0,0,1-3.8-.65,8.52,8.52,0,0,1-2.9-1.82A8,8,0,0,1,413.29,38a9.55,9.55,0,0,1-.65-3.56,10,10,0,0,1,.62-3.58,7.82,7.82,0,0,1,4.6-4.61,10.08,10.08,0,0,1,3.7-.64,10.73,10.73,0,0,1,1.94.16,9.8,9.8,0,0,1,1.66.45,7.5,7.5,0,0,1,1.42.7,8.31,8.31,0,0,1,1.19.91l-.8,1.28a.81.81,0,0,1-.49.37.85.85,0,0,1-.65-.14l-.74-.43a8.24,8.24,0,0,0-.89-.43,6.45,6.45,0,0,0-1.16-.32,8.75,8.75,0,0,0-1.56-.13,6.51,6.51,0,0,0-2.47.45,5.37,5.37,0,0,0-1.88,1.28,5.74,5.74,0,0,0-1.2,2,7.92,7.92,0,0,0-.42,2.65,8.26,8.26,0,0,0,.44,2.77,5.63,5.63,0,0,0,1.26,2.06,5.44,5.44,0,0,0,2,1.29,7.07,7.07,0,0,0,2.59.44,7.27,7.27,0,0,0,1.9-.23,8.07,8.07,0,0,0,1.64-.64V36.64H422.9a.59.59,0,0,1-.43-.15.53.53,0,0,1-.16-.39V34.5h5.53Z"/><path class="logo-path" d="M442,40.75V43H431.16V25.74h10.78V28h-8v5.21h6.36v2.2H434v5.34h8Z"/><path class="logo-path" d="M458.14,43h-2.51a1.14,1.14,0,0,1-1.08-.58l-4-5.82a1.37,1.37,0,0,0-.44-.43,1.52,1.52,0,0,0-.72-.13H447.8v7H445V25.74h5.09a10.89,10.89,0,0,1,2.93.35,5.53,5.53,0,0,1,2,1,3.89,3.89,0,0,1,1.17,1.54,5.17,5.17,0,0,1,.38,2,5.1,5.1,0,0,1-.27,1.68,4.8,4.8,0,0,1-.78,1.42,5.12,5.12,0,0,1-1.25,1.1,6.17,6.17,0,0,1-1.69.73,2.87,2.87,0,0,1,.89.88ZM450,34a5.64,5.64,0,0,0,1.68-.23,3.44,3.44,0,0,0,1.2-.65,2.64,2.64,0,0,0,.72-1,3.37,3.37,0,0,0,.24-1.29,2.59,2.59,0,0,0-.94-2.16,4.49,4.49,0,0,0-2.83-.74h-2.28V34H450Z"/><path class="logo-path" d="M8.75,34.87a4.47,4.47,0,0,0-1.57-1,5.74,5.74,0,0,0-2-.34,5.26,5.26,0,0,0-2.11.4A5,5,0,0,0,1.43,35a4.73,4.73,0,0,0-1,1.57,5,5,0,0,0-.36,1.89,6.4,6.4,0,0,0,.32,2.06,4.42,4.42,0,0,0,1,1.6,4.41,4.41,0,0,0,1.54,1,5.43,5.43,0,0,0,2.08.37,5.81,5.81,0,0,0,2.13-.38,4.82,4.82,0,0,0,1.63-1,4.68,4.68,0,0,0,1.06-1.58,5.22,5.22,0,0,0,.37-2,5.57,5.57,0,0,0-.37-2.1A4.29,4.29,0,0,0,8.75,34.87Z"/><path class="logo-path" d="M30.62.26H4a4,4,0,0,0-4,4V30.32l5.9-7.91a1.9,1.9,0,0,1,.72-.57,2.38,2.38,0,0,1,1-.23h3L3.38,30.7q-.29.38-.57.72t-.54.69a7.1,7.1,0,0,1,1.81-.82A7.4,7.4,0,0,1,6.23,31,8,8,0,0,1,9,31.48a6.82,6.82,0,0,1,2.31,1.4,6.45,6.45,0,0,1,1.57,2.28,7.87,7.87,0,0,1,.58,3.13,8.12,8.12,0,0,1-.61,3.16,7.72,7.72,0,0,1-1.31,2.11H30.62a4,4,0,0,0,4-4V4.26A4,4,0,0,0,30.62.26Z"/></g></g></svg>
